<svg xmlns="http://www.w3.org/2000/svg" viewBox="0 0 512 512">
  <defs>
    <linearGradient id="bg" x1="0%" y1="0%" x2="100%" y2="100%">
      <stop offset="0%" style="stop-color:#4CAF50"/>
      <stop offset="100%" style="stop-color:#2E7D32"/>
    </linearGradient>
  </defs>
  
  <!-- Background -->
  <rect width="512" height="512" rx="100" fill="url(#bg)"/>
  
  <!-- Heart icon -->
  <path d="M256 420c-8 0-16-3-22-9L108 285c-40-40-40-104 0-144 40-40 104-40 144 0l4 4 4-4c40-40 104-40 144 0s40 104 0 144L278 411c-6 6-14 9-22 9z" fill="white" opacity="0.95"/>
  
  <!-- Plus sign inside heart -->
  <rect x="232" y="200" width="48" height="120" rx="8" fill="#2E7D32"/>
  <rect x="196" y="236" width="120" height="48" rx="8" fill="#2E7D32"/>
</svg>
